<svg width="232" height="233" viewBox="0 0 232 233" fill="none" xmlns="http://www.w3.org/2000/svg">
<circle cx="116.5" cy="116.5" r="102.5" stroke="#3184FF" stroke-width="3"/>
<circle cx="115.5" cy="116.5" r="77.5" stroke="#3184FF" stroke-width="3"/>
<circle cx="116.5" cy="14.5" r="14.5" fill="white"/>
<circle cx="116.5" cy="14.5" r="9.5" fill="#FED665"/>
<circle cx="116.5" cy="193.5" r="14.5" fill="white"/>
<circle cx="116.5" cy="193.5" r="9.5" fill="#FED665"/>
<circle cx="116.5" cy="39.5" r="14.5" fill="white"/>
<circle cx="116.5" cy="39.5" r="9.5" fill="#FED665"/>
<circle cx="116.5" cy="218.5" r="14.5" fill="white"/>
<circle cx="116.5" cy="218.5" r="9.5" fill="#FED665"/>
<circle cx="217.5" cy="116.5" r="14.5" fill="white"/>
<circle cx="217.5" cy="116.5" r="9.5" fill="#FED665"/>
<circle cx="14.5" cy="116.5" r="14.5" fill="white"/>
<circle cx="14.5" cy="116.5" r="9.5" fill="#FED665"/>
<path d="M151.945 126.945C147.395 131.495 141.993 135.104 136.048 137.566C130.103 140.029 123.731 141.296 117.296 141.296C110.862 141.296 104.49 140.029 98.545 137.566C92.6 135.104 87.1983 131.495 82.6482 126.945L87.2847 122.308C91.2259 126.249 95.9048 129.376 101.054 131.509C106.204 133.642 111.723 134.739 117.296 134.739C122.87 134.739 128.389 133.642 133.539 131.509C138.688 129.376 143.367 126.249 147.308 122.308L151.945 126.945Z" fill="#EF422A"/>
<circle cx="96.5" cy="107.5" r="9.5" fill="#3D4148"/>
<circle cx="137.5" cy="107.5" r="9.5" fill="#3D4148"/>
</svg>
